<mxfile host="app.diagrams.net" modified="2022-12-05T10:26:39.624Z" agent="5.0 (Windows NT 10.0; Win64; x64) AppleWebKit/537.36 (KHTML, like Gecko) Chrome/108.0.0.0 Safari/537.36" etag="J54vp7_Wqu7rcVd1tvqD" version="20.6.0" type="github">
  <diagram id="C5RBs43oDa-KdzZeNtuy" name="Page-1">
    <mxGraphModel dx="875" dy="462" grid="0" gridSize="10" guides="1" tooltips="1" connect="1" arrows="1" fold="1" page="1" pageScale="1" pageWidth="1169" pageHeight="1654" math="0" shadow="0">
      <root>
        <mxCell id="WIyWlLk6GJQsqaUBKTNV-0" />
        <mxCell id="WIyWlLk6GJQsqaUBKTNV-1" parent="WIyWlLk6GJQsqaUBKTNV-0" />
        <mxCell id="pgXoy1QrV6HoenHfDHfW-37" style="edgeStyle=orthogonalEdgeStyle;rounded=0;orthogonalLoop=1;jettySize=auto;html=1;exitX=1;exitY=0.75;exitDx=0;exitDy=0;entryX=0.653;entryY=0.987;entryDx=0;entryDy=0;entryPerimeter=0;fontFamily=Helvetica;fontSize=6;" edge="1" parent="WIyWlLk6GJQsqaUBKTNV-1">
          <mxGeometry relative="1" as="geometry">
            <mxPoint x="82.00000000000011" y="192.8200000000001" as="sourcePoint" />
            <mxPoint x="114.95525000000009" y="193.39224999999982" as="targetPoint" />
          </mxGeometry>
        </mxCell>
        <mxCell id="pgXoy1QrV6HoenHfDHfW-0" value="开始查验" style="rounded=1;whiteSpace=wrap;html=1;" vertex="1" parent="WIyWlLk6GJQsqaUBKTNV-1">
          <mxGeometry x="4" y="178.87" width="82" height="31" as="geometry" />
        </mxCell>
        <mxCell id="pgXoy1QrV6HoenHfDHfW-56" style="edgeStyle=orthogonalEdgeStyle;rounded=0;orthogonalLoop=1;jettySize=auto;html=1;exitX=0.5;exitY=1;exitDx=0;exitDy=0;entryX=0;entryY=0.5;entryDx=0;entryDy=0;fontFamily=Helvetica;fontSize=6;" edge="1" parent="WIyWlLk6GJQsqaUBKTNV-1" source="pgXoy1QrV6HoenHfDHfW-1" target="pgXoy1QrV6HoenHfDHfW-3">
          <mxGeometry relative="1" as="geometry" />
        </mxCell>
        <mxCell id="pgXoy1QrV6HoenHfDHfW-1" value="" style="shape=partialRectangle;whiteSpace=wrap;html=1;bottom=1;right=1;left=1;top=0;fillColor=none;routingCenterX=-0.5;rotation=90;" vertex="1" parent="WIyWlLk6GJQsqaUBKTNV-1">
          <mxGeometry x="64.75" y="167.25" width="153.25" height="54.25" as="geometry" />
        </mxCell>
        <mxCell id="pgXoy1QrV6HoenHfDHfW-2" value="Ⅰ类卡点" style="rounded=0;whiteSpace=wrap;html=1;" vertex="1" parent="WIyWlLk6GJQsqaUBKTNV-1">
          <mxGeometry x="148" y="105" width="99" height="28" as="geometry" />
        </mxCell>
        <mxCell id="pgXoy1QrV6HoenHfDHfW-3" value="Ⅱ类卡点" style="rounded=0;whiteSpace=wrap;html=1;" vertex="1" parent="WIyWlLk6GJQsqaUBKTNV-1">
          <mxGeometry x="148" y="182.37" width="101" height="23.63" as="geometry" />
        </mxCell>
        <mxCell id="pgXoy1QrV6HoenHfDHfW-4" value="Ⅲ类卡点" style="rounded=0;whiteSpace=wrap;html=1;" vertex="1" parent="WIyWlLk6GJQsqaUBKTNV-1">
          <mxGeometry x="150" y="255" width="101" height="24" as="geometry" />
        </mxCell>
        <mxCell id="pgXoy1QrV6HoenHfDHfW-7" value="&lt;div style=&quot;&quot;&gt;&lt;span style=&quot;font-size: 8px; background-color: rgb(255, 255, 255); color: rgb(51, 51, 51); font-family: &amp;quot;Open Sans&amp;quot;, &amp;quot;Clear Sans&amp;quot;, &amp;quot;Helvetica Neue&amp;quot;, Helvetica, Arial, sans-serif; orphans: 4;&quot;&gt;1.对经过卡点的Ⅰ、Ⅱ类人群查核酸、查健康码、查行程卡、量体温；&lt;/span&gt;&lt;/div&gt;&lt;span style=&quot;color: rgb(51, 51, 51); font-family: &amp;quot;Open Sans&amp;quot;, &amp;quot;Clear Sans&amp;quot;, &amp;quot;Helvetica Neue&amp;quot;, Helvetica, Arial, sans-serif; orphans: 4; background-color: rgb(255, 255, 255);&quot;&gt;&lt;div style=&quot;&quot;&gt;&lt;span style=&quot;font-size: 8px;&quot;&gt;2.&lt;/span&gt;&lt;span style=&quot;font-size: 8px;&quot;&gt;经过卡点的&lt;/span&gt;&lt;span style=&quot;font-size: 8px;&quot;&gt;Ⅰ、Ⅱ类人群逐人填报小程序；&lt;/span&gt;&lt;/div&gt;&lt;div style=&quot;&quot;&gt;&lt;span style=&quot;font-size: 8px;&quot;&gt;3.&lt;/span&gt;&lt;span style=&quot;font-size: 8px;&quot;&gt;对经过卡点的&lt;/span&gt;&lt;span style=&quot;font-size: 8px;&quot;&gt;Ⅰ、Ⅱ人群均&lt;/span&gt;&lt;span style=&quot;font-size: 8px;&quot;&gt;签订承诺书。&lt;/span&gt;&lt;/div&gt;&lt;div style=&quot;&quot;&gt;&lt;span style=&quot;font-size: 8px;&quot;&gt;4.对经过卡点的&lt;/span&gt;&lt;span style=&quot;font-size: 8px;&quot;&gt;Ⅰ、Ⅱ类人群均要进行落地核酸检测。&lt;/span&gt;&lt;/div&gt;&lt;div style=&quot;&quot;&gt;&lt;span style=&quot;font-size: 8px;&quot;&gt;5.对经过卡点的Ⅲ类人群持48小时核酸检测阴性证明，并告知“3天2检”。&lt;/span&gt;&lt;/div&gt;&lt;/span&gt;" style="rounded=0;whiteSpace=wrap;html=1;align=left;" vertex="1" parent="WIyWlLk6GJQsqaUBKTNV-1">
          <mxGeometry x="271" y="49" width="291" height="110" as="geometry" />
        </mxCell>
        <mxCell id="pgXoy1QrV6HoenHfDHfW-8" value="对经过卡点的&lt;span style=&quot;color: rgb(51, 51, 51); font-family: &amp;quot;Open Sans&amp;quot;, &amp;quot;Clear Sans&amp;quot;, &amp;quot;Helvetica Neue&amp;quot;, Helvetica, Arial, sans-serif; font-size: 8px; orphans: 4; background-color: rgb(255, 255, 255);&quot;&gt;Ⅰ、Ⅱ、&lt;/span&gt;&lt;span style=&quot;color: rgb(51, 51, 51); font-family: &amp;quot;Open Sans&amp;quot;, &amp;quot;Clear Sans&amp;quot;, &amp;quot;Helvetica Neue&amp;quot;, Helvetica, Arial, sans-serif; font-size: 8px; orphans: 4; background-color: rgb(255, 255, 255);&quot;&gt;Ⅲ&lt;/span&gt;&lt;span style=&quot;color: rgb(51, 51, 51); font-family: &amp;quot;Open Sans&amp;quot;, &amp;quot;Clear Sans&amp;quot;, &amp;quot;Helvetica Neue&amp;quot;, Helvetica, Arial, sans-serif; font-size: 8px; orphans: 4; background-color: rgb(255, 255, 255);&quot;&gt;类人群进行即查即检即走&lt;/span&gt;" style="rounded=0;whiteSpace=wrap;html=1;align=left;" vertex="1" parent="WIyWlLk6GJQsqaUBKTNV-1">
          <mxGeometry x="270" y="170" width="291" height="60.5" as="geometry" />
        </mxCell>
        <mxCell id="pgXoy1QrV6HoenHfDHfW-10" value="&lt;p style=&quot;font-size: 6px;&quot; class=&quot;MsoNormal&quot;&gt;&lt;span style=&quot;font-size: 6px;&quot;&gt;&lt;font style=&quot;font-size: 6px;&quot;&gt;对经过&lt;/font&gt;&lt;font style=&quot;font-size: 6px;&quot;&gt;Ⅲ类卡点的Ⅰ、Ⅱ类人群按查验流程完成后，签订承诺书，告知其到指定地点开展落地核酸检测&lt;/font&gt;&lt;/span&gt;&lt;/p&gt;" style="rounded=0;whiteSpace=wrap;html=1;align=left;" vertex="1" parent="WIyWlLk6GJQsqaUBKTNV-1">
          <mxGeometry x="269" y="241" width="293" height="66" as="geometry" />
        </mxCell>
        <mxCell id="pgXoy1QrV6HoenHfDHfW-13" value="" style="shape=partialRectangle;whiteSpace=wrap;html=1;bottom=1;right=1;left=1;top=0;fillColor=none;routingCenterX=-0.5;fontFamily=Helvetica;fontSize=6;rotation=-90;" vertex="1" parent="WIyWlLk6GJQsqaUBKTNV-1">
          <mxGeometry x="489.38" y="182.87" width="193.5" height="46.75" as="geometry" />
        </mxCell>
        <mxCell id="pgXoy1QrV6HoenHfDHfW-48" style="edgeStyle=orthogonalEdgeStyle;rounded=0;orthogonalLoop=1;jettySize=auto;html=1;fontFamily=Helvetica;fontSize=6;" edge="1" parent="WIyWlLk6GJQsqaUBKTNV-1" source="pgXoy1QrV6HoenHfDHfW-14" target="pgXoy1QrV6HoenHfDHfW-15">
          <mxGeometry relative="1" as="geometry" />
        </mxCell>
        <mxCell id="pgXoy1QrV6HoenHfDHfW-50" style="edgeStyle=orthogonalEdgeStyle;rounded=0;orthogonalLoop=1;jettySize=auto;html=1;exitX=1;exitY=0.5;exitDx=0;exitDy=0;entryX=0;entryY=0.5;entryDx=0;entryDy=0;fontFamily=Helvetica;fontSize=6;" edge="1" parent="WIyWlLk6GJQsqaUBKTNV-1" source="pgXoy1QrV6HoenHfDHfW-14" target="pgXoy1QrV6HoenHfDHfW-17">
          <mxGeometry relative="1" as="geometry" />
        </mxCell>
        <mxCell id="pgXoy1QrV6HoenHfDHfW-14" value="是否放行" style="rhombus;whiteSpace=wrap;html=1;fontFamily=Helvetica;fontSize=6;" vertex="1" parent="WIyWlLk6GJQsqaUBKTNV-1">
          <mxGeometry x="631" y="176.25" width="80" height="84" as="geometry" />
        </mxCell>
        <mxCell id="pgXoy1QrV6HoenHfDHfW-15" value="放行" style="rounded=1;whiteSpace=wrap;html=1;fontSize=6;" vertex="1" parent="WIyWlLk6GJQsqaUBKTNV-1">
          <mxGeometry x="538" y="454" width="120" height="60" as="geometry" />
        </mxCell>
        <mxCell id="pgXoy1QrV6HoenHfDHfW-53" value="" style="edgeStyle=orthogonalEdgeStyle;rounded=0;orthogonalLoop=1;jettySize=auto;html=1;fontFamily=Helvetica;fontSize=6;" edge="1" parent="WIyWlLk6GJQsqaUBKTNV-1" source="pgXoy1QrV6HoenHfDHfW-17" target="pgXoy1QrV6HoenHfDHfW-45">
          <mxGeometry relative="1" as="geometry" />
        </mxCell>
        <mxCell id="pgXoy1QrV6HoenHfDHfW-17" value="推送转运管控" style="whiteSpace=wrap;html=1;fontSize=6;" vertex="1" parent="WIyWlLk6GJQsqaUBKTNV-1">
          <mxGeometry x="741" y="188.25" width="91" height="60" as="geometry" />
        </mxCell>
        <mxCell id="pgXoy1QrV6HoenHfDHfW-29" value="对健康码呈红码的，由转运隔离组派出负压车转运隔离管控" style="rounded=0;whiteSpace=wrap;html=1;fontFamily=Helvetica;fontSize=6;align=left;" vertex="1" parent="WIyWlLk6GJQsqaUBKTNV-1">
          <mxGeometry x="894" y="54" width="259" height="60" as="geometry" />
        </mxCell>
        <mxCell id="pgXoy1QrV6HoenHfDHfW-31" value="对健康码呈黄码的，推送至所属镇进行管控" style="rounded=0;whiteSpace=wrap;html=1;fontFamily=Helvetica;fontSize=6;" vertex="1" parent="WIyWlLk6GJQsqaUBKTNV-1">
          <mxGeometry x="894" y="125" width="259" height="60" as="geometry" />
        </mxCell>
        <mxCell id="pgXoy1QrV6HoenHfDHfW-32" value="&lt;p class=&quot;MsoNormal&quot;&gt;&lt;span style=&quot;font-size: 4px;&quot;&gt;对乘坐广东返回广南县城的客运大巴车，由转运隔离组对接客运公司，安排大巴车驾驶员提醒乘客进行返乡预约，联系家人进行对点接送；对无预约且无人接送的，由转运隔离组安排车辆闭环转运至所属乡镇村（社区）进行管控。&lt;/span&gt;&lt;/p&gt;" style="rounded=0;whiteSpace=wrap;html=1;fontFamily=Helvetica;fontSize=6;align=left;" vertex="1" parent="WIyWlLk6GJQsqaUBKTNV-1">
          <mxGeometry x="894" y="194" width="259" height="113" as="geometry" />
        </mxCell>
        <mxCell id="pgXoy1QrV6HoenHfDHfW-33" value="&lt;p class=&quot;MsoNormal&quot;&gt;&lt;span style=&quot;&quot;&gt;&lt;font style=&quot;font-size: 6px;&quot;&gt;对乘坐高铁无预约且无人接送的人员，由转运隔离组安排车辆进行转运至所属乡镇村（社区）进行管控&lt;/font&gt;&lt;/span&gt;&lt;/p&gt;" style="rounded=0;whiteSpace=wrap;html=1;fontFamily=Helvetica;fontSize=6;align=left;" vertex="1" parent="WIyWlLk6GJQsqaUBKTNV-1">
          <mxGeometry x="894" y="317" width="259" height="113" as="geometry" />
        </mxCell>
        <mxCell id="pgXoy1QrV6HoenHfDHfW-65" style="edgeStyle=orthogonalEdgeStyle;rounded=0;orthogonalLoop=1;jettySize=auto;html=1;fontFamily=Helvetica;fontSize=6;" edge="1" parent="WIyWlLk6GJQsqaUBKTNV-1" source="pgXoy1QrV6HoenHfDHfW-34" target="pgXoy1QrV6HoenHfDHfW-64">
          <mxGeometry relative="1" as="geometry" />
        </mxCell>
        <mxCell id="pgXoy1QrV6HoenHfDHfW-34" value="&lt;p style=&quot;font-size: 6px;&quot; class=&quot;MsoNormal&quot;&gt;&lt;span style=&quot;font-size: 6px;&quot;&gt;对&lt;/span&gt;&lt;span style=&quot;font-size: 6px;&quot;&gt;Ⅰ、Ⅱ类人员&lt;/span&gt;&lt;span style=&quot;font-size: 6px;&quot;&gt;需要&lt;/span&gt;&lt;span style=&quot;font-size: 6px;&quot;&gt;居家隔离医学观察或居家健康监测&lt;/span&gt;&lt;span style=&quot;font-size: 6px;&quot;&gt;，但没有条件的人员由转运隔离组进行转运至定点隔离点进行管控&lt;/span&gt;&lt;/p&gt;" style="rounded=0;whiteSpace=wrap;html=1;fontFamily=Helvetica;fontSize=6;align=left;" vertex="1" parent="WIyWlLk6GJQsqaUBKTNV-1">
          <mxGeometry x="894" y="440" width="259" height="113" as="geometry" />
        </mxCell>
        <mxCell id="pgXoy1QrV6HoenHfDHfW-35" style="edgeStyle=orthogonalEdgeStyle;rounded=0;orthogonalLoop=1;jettySize=auto;html=1;exitX=0.5;exitY=0;exitDx=0;exitDy=0;entryX=0.75;entryY=0;entryDx=0;entryDy=0;fontFamily=Helvetica;fontSize=6;" edge="1" parent="WIyWlLk6GJQsqaUBKTNV-1">
          <mxGeometry relative="1" as="geometry">
            <mxPoint x="246.5" y="120.37000000000012" as="sourcePoint" />
            <mxPoint x="271.7500000000002" y="120.37000000000012" as="targetPoint" />
          </mxGeometry>
        </mxCell>
        <mxCell id="pgXoy1QrV6HoenHfDHfW-39" style="edgeStyle=orthogonalEdgeStyle;rounded=0;orthogonalLoop=1;jettySize=auto;html=1;exitX=0.5;exitY=0;exitDx=0;exitDy=0;entryX=0.75;entryY=0;entryDx=0;entryDy=0;fontFamily=Helvetica;fontSize=6;" edge="1" parent="WIyWlLk6GJQsqaUBKTNV-1">
          <mxGeometry relative="1" as="geometry">
            <mxPoint x="248.5" y="192.37000000000012" as="sourcePoint" />
            <mxPoint x="273.7500000000002" y="192.37000000000012" as="targetPoint" />
          </mxGeometry>
        </mxCell>
        <mxCell id="pgXoy1QrV6HoenHfDHfW-40" style="edgeStyle=orthogonalEdgeStyle;rounded=0;orthogonalLoop=1;jettySize=auto;html=1;exitX=0.5;exitY=0;exitDx=0;exitDy=0;entryX=0.75;entryY=0;entryDx=0;entryDy=0;fontFamily=Helvetica;fontSize=6;" edge="1" parent="WIyWlLk6GJQsqaUBKTNV-1">
          <mxGeometry relative="1" as="geometry">
            <mxPoint x="247.5" y="267.3700000000001" as="sourcePoint" />
            <mxPoint x="272.7500000000002" y="267.3700000000001" as="targetPoint" />
          </mxGeometry>
        </mxCell>
        <mxCell id="pgXoy1QrV6HoenHfDHfW-45" value="" style="shape=partialRectangle;whiteSpace=wrap;html=1;bottom=1;right=1;left=1;top=0;fillColor=none;routingCenterX=-0.5;fontFamily=Helvetica;fontSize=6;rotation=90;" vertex="1" parent="WIyWlLk6GJQsqaUBKTNV-1">
          <mxGeometry x="669.5" y="296.5" width="430.5" height="7.5" as="geometry" />
        </mxCell>
        <mxCell id="pgXoy1QrV6HoenHfDHfW-49" value="&lt;span style=&quot;color: rgb(0, 0, 0); font-family: Helvetica; font-size: 6px; font-style: normal; font-variant-ligatures: normal; font-variant-caps: normal; font-weight: 400; letter-spacing: normal; orphans: 2; text-align: center; text-indent: 0px; text-transform: none; widows: 2; word-spacing: 0px; -webkit-text-stroke-width: 0px; background-color: rgb(248, 249, 250); text-decoration-thickness: initial; text-decoration-style: initial; text-decoration-color: initial; float: none; display: inline !important;&quot;&gt;是&lt;/span&gt;" style="text;whiteSpace=wrap;html=1;fontSize=6;fontFamily=Helvetica;" vertex="1" parent="WIyWlLk6GJQsqaUBKTNV-1">
          <mxGeometry x="649.5048085650276" y="351.99746560489433" width="40" height="36" as="geometry" />
        </mxCell>
        <mxCell id="pgXoy1QrV6HoenHfDHfW-52" style="edgeStyle=orthogonalEdgeStyle;rounded=0;orthogonalLoop=1;jettySize=auto;html=1;exitX=0.5;exitY=1;exitDx=0;exitDy=0;fontFamily=Helvetica;fontSize=6;" edge="1" parent="WIyWlLk6GJQsqaUBKTNV-1" source="pgXoy1QrV6HoenHfDHfW-17" target="pgXoy1QrV6HoenHfDHfW-17">
          <mxGeometry relative="1" as="geometry" />
        </mxCell>
        <mxCell id="pgXoy1QrV6HoenHfDHfW-54" value="&lt;span style=&quot;color: rgb(0, 0, 0); font-family: Helvetica; font-size: 6px; font-style: normal; font-variant-ligatures: normal; font-variant-caps: normal; font-weight: 400; letter-spacing: normal; orphans: 2; text-align: center; text-indent: 0px; text-transform: none; widows: 2; word-spacing: 0px; -webkit-text-stroke-width: 0px; background-color: rgb(248, 249, 250); text-decoration-thickness: initial; text-decoration-style: initial; text-decoration-color: initial; float: none; display: inline !important;&quot;&gt;否&lt;/span&gt;" style="text;whiteSpace=wrap;html=1;fontSize=6;fontFamily=Helvetica;" vertex="1" parent="WIyWlLk6GJQsqaUBKTNV-1">
          <mxGeometry x="713.9970937212776" y="198.00099501665898" width="40" height="36" as="geometry" />
        </mxCell>
        <mxCell id="pgXoy1QrV6HoenHfDHfW-55" value="" style="endArrow=classic;html=1;rounded=0;fontFamily=Helvetica;fontSize=6;" edge="1" parent="WIyWlLk6GJQsqaUBKTNV-1">
          <mxGeometry width="50" height="50" relative="1" as="geometry">
            <mxPoint x="611" y="219" as="sourcePoint" />
            <mxPoint x="635" y="219" as="targetPoint" />
          </mxGeometry>
        </mxCell>
        <mxCell id="pgXoy1QrV6HoenHfDHfW-59" style="edgeStyle=orthogonalEdgeStyle;rounded=0;orthogonalLoop=1;jettySize=auto;html=1;fontFamily=Helvetica;fontSize=6;entryX=0.25;entryY=0;entryDx=0;entryDy=0;exitX=0.5;exitY=0;exitDx=0;exitDy=0;" edge="1" parent="WIyWlLk6GJQsqaUBKTNV-1" source="pgXoy1QrV6HoenHfDHfW-13" target="pgXoy1QrV6HoenHfDHfW-15">
          <mxGeometry relative="1" as="geometry">
            <mxPoint x="423.94" y="396.0099999999999" as="sourcePoint" />
            <mxPoint x="350.9988235294117" y="589.76" as="targetPoint" />
            <Array as="points">
              <mxPoint x="592" y="206" />
              <mxPoint x="592" y="378" />
              <mxPoint x="568" y="378" />
            </Array>
          </mxGeometry>
        </mxCell>
        <mxCell id="pgXoy1QrV6HoenHfDHfW-60" value="社区管控" style="whiteSpace=wrap;html=1;fontSize=6;align=center;rounded=0;" vertex="1" parent="WIyWlLk6GJQsqaUBKTNV-1">
          <mxGeometry x="1248" y="252" width="117" height="60" as="geometry" />
        </mxCell>
        <mxCell id="pgXoy1QrV6HoenHfDHfW-62" value="" style="shape=partialRectangle;whiteSpace=wrap;html=1;bottom=1;right=1;left=1;top=0;fillColor=none;routingCenterX=-0.5;fontFamily=Helvetica;fontSize=6;rotation=-90;" vertex="1" parent="WIyWlLk6GJQsqaUBKTNV-1">
          <mxGeometry x="1063.5" y="240.5" width="241" height="60" as="geometry" />
        </mxCell>
        <mxCell id="pgXoy1QrV6HoenHfDHfW-63" style="edgeStyle=orthogonalEdgeStyle;rounded=0;orthogonalLoop=1;jettySize=auto;html=1;exitX=0;exitY=0.5;exitDx=0;exitDy=0;fontFamily=Helvetica;fontSize=6;" edge="1" parent="WIyWlLk6GJQsqaUBKTNV-1" source="pgXoy1QrV6HoenHfDHfW-62" target="pgXoy1QrV6HoenHfDHfW-62">
          <mxGeometry relative="1" as="geometry" />
        </mxCell>
        <mxCell id="pgXoy1QrV6HoenHfDHfW-64" value="&lt;p style=&quot;font-size: 6px;&quot; class=&quot;MsoNormal&quot;&gt;隔离点管控&lt;/p&gt;" style="rounded=0;whiteSpace=wrap;html=1;fontFamily=Helvetica;fontSize=6;align=center;" vertex="1" parent="WIyWlLk6GJQsqaUBKTNV-1">
          <mxGeometry x="1250" y="463.5" width="99" height="66" as="geometry" />
        </mxCell>
        <mxCell id="pgXoy1QrV6HoenHfDHfW-76" value="" style="endArrow=classic;html=1;rounded=0;fontFamily=Helvetica;fontSize=6;" edge="1" parent="WIyWlLk6GJQsqaUBKTNV-1">
          <mxGeometry width="50" height="50" relative="1" as="geometry">
            <mxPoint x="1209" y="278" as="sourcePoint" />
            <mxPoint x="1250" y="278" as="targetPoint" />
          </mxGeometry>
        </mxCell>
      </root>
    </mxGraphModel>
  </diagram>
</mxfile>
